<svg xmlns="http://www.w3.org/2000/svg" version="1.1" xmlns:xlink="http://www.w3.org/1999/xlink" xmlns:svgjs="http://svgjs.dev/svgjs" width="2000" height="555" viewBox="0 0 2000 555"><g transform="matrix(1,0,0,1,-1.2121212121212466,0.2485289792746812)"><svg viewBox="0 0 396 110" data-background-color="#ffffff" preserveAspectRatio="xMidYMid meet" height="555" width="2000" xmlns="http://www.w3.org/2000/svg" xmlns:xlink="http://www.w3.org/1999/xlink"><g id="tight-bounds" transform="matrix(1,0,0,1,0.2400000000000091,-0.04925297447718435)"><svg viewBox="0 0 395.52 110.09851097036949" height="110.09851097036949" width="395.52"><g><svg viewBox="0 0 567.8763946716508 158.0763184379314" height="110.09851097036949" width="395.52"><g transform="matrix(1,0,0,1,172.35639467165086,48.84787685878018)"><svg viewBox="0 0 395.52 60.38056472037105" height="60.38056472037105" width="395.52"><g id="textblocktransform"><svg viewBox="0 0 395.52 60.38056472037105" height="60.38056472037105" width="395.52" id="textblock"><g><svg viewBox="0 0 395.52 60.38056472037105" height="60.38056472037105" width="395.52"><g transform="matrix(1,0,0,1,0,0)"><svg width="395.52" viewBox="1.1842105388641357 -40 264.94580078125 40.45000076293945" height="60.38056472037105" data-palette-color="#ffffff"><path d="M33.15-11.25L39.6-38.05 39.55-38Q39.85-39.1 40.73-39.6 41.6-40.1 43.05-39.85L43.05-39.85Q44.5-39.6 45.13-38.95 45.75-38.3 45.4-37.15L45.4-37.15 36.4-1.3 36.4-1.35Q36.15-0.5 35.27-0.05 34.4 0.4 33.45 0.4L33.45 0.4Q32.35 0.4 31.38 0.08 30.4-0.25 30.15-1.25L30.15-1.25 30.2-1.2 24.05-25.6 22.7-25.6 16.6-1.25Q16.35-0.4 15.35 0 14.35 0.4 13.3 0.4L13.3 0.4Q12 0.4 11.23 0.03 10.45-0.35 10.2-1.3L10.2-1.3 10.25-1.25 1.25-37.15Q1-38.15 1.7-38.88 2.4-39.6 3.7-39.85L3.7-39.85Q6.5-40.3 7.1-38L7.1-38 7.05-38.05 9.3-29Q9.75-27.2 10.2-25.33 10.65-23.45 11.2-21.33 11.75-19.2 12.4-16.7 13.05-14.2 13.85-11.1L13.85-11.1 20.25-38.1Q20.5-39.2 21.4-39.55 22.3-39.9 23.4-39.9L23.4-39.9Q24.4-39.9 25.35-39.53 26.3-39.15 26.55-38L26.55-38 33.15-11.25ZM74.1-1.2L63.1-34.8 52.15-1.2 52.15-1.25Q51.85-0.5 51.32-0.03 50.8 0.45 50.05 0.45L50.05 0.45Q49.65 0.45 49.27 0.38 48.9 0.3 48.5 0.2L48.5 0.2 48.55 0.2Q45.7-0.7 46.45-3L46.45-3 57.85-37.65Q58.1-38.45 58.72-39 59.35-39.55 60.2-39.65L60.2-39.65Q61.05-39.8 61.85-39.88 62.65-39.95 63.1-39.95L63.1-39.95Q63.55-39.95 64.35-39.88 65.15-39.8 66-39.7L66-39.7Q66.7-39.6 67.37-38.95 68.05-38.3 68.4-37.65L68.4-37.65Q71.2-29.05 74.07-20.33 76.95-11.6 79.75-3L79.75-3Q80.45-0.7 77.65 0.2L77.65 0.2Q77.25 0.3 76.92 0.38 76.6 0.45 76.2 0.45L76.2 0.45Q75.5 0.45 74.92-0.03 74.35-0.5 74.1-1.25L74.1-1.25 74.1-1.2ZM66.85-12L66.85-12Q66.85-10.4 65.72-9.28 64.6-8.15 63-8.15L63-8.15Q61.4-8.15 60.3-9.28 59.2-10.4 59.2-12L59.2-12Q59.2-13.6 60.3-14.73 61.4-15.85 63-15.85L63-15.85Q64.6-15.85 65.72-14.73 66.85-13.6 66.85-12ZM96 0.25L96 0.25Q95 0.25 93.87-0.08 92.75-0.4 92.25-1.3L92.25-1.3Q91.09-5.2 89.84-9.3 88.59-13.4 87.34-17.35L87.34-17.35Q85.95-22 84.34-27.03 82.75-32.05 81.34-36.65L81.34-36.65Q81.05-37.75 81.7-38.58 82.34-39.4 83.55-39.8L83.55-39.8Q84.3-40 84.84-40L84.84-40Q86.55-40 87.05-38.3L87.05-38.3 90.75-26.45Q91.25-24.65 91.92-22.5 92.59-20.35 93.3-18.1 94-15.85 94.7-13.63 95.4-11.4 96-9.5L96-9.5Q96.95-12.65 98.07-16.32 99.2-20 100.37-23.8 101.55-27.6 102.7-31.33 103.84-35.05 104.84-38.3L104.84-38.3Q105.4-40 107-40L107-40Q107.59-40 108.4-39.8L108.4-39.8Q111.15-39.05 110.55-36.65L110.55-36.65Q107.84-27.9 105.09-19 102.34-10.1 99.65-1.3L99.65-1.3Q99.25-0.3 98.17-0.03 97.09 0.25 96 0.25ZM136.79 0.05L118.49 0.05Q116.64 0.05 115.99-0.9 115.34-1.85 115.34-3L115.34-3 115.34-36.7Q115.34-37.85 115.99-38.78 116.64-39.7 118.49-39.7L118.49-39.7 135.89-39.7Q137.74-39.7 137.84-37.2L137.84-37.2Q137.94-34.65 135.89-34.65L135.89-34.65 121.24-34.65 121.24-5 136.79-5Q138.64-5 138.69-2.55L138.69-2.55Q138.79 0.05 136.79 0.05L136.79 0.05ZM134.04-20.65L134.04-20.65Q134.04-18.9 132.82-17.7 131.59-16.5 129.84-16.5L129.84-16.5Q128.14-16.5 126.94-17.7 125.74-18.9 125.74-20.65L125.74-20.65Q125.74-22.4 126.94-23.6 128.14-24.8 129.84-24.8L129.84-24.8Q131.59-24.8 132.82-23.6 134.04-22.4 134.04-20.65ZM181.69 0.05L162.24 0.05Q160.39 0.05 159.74-0.9 159.09-1.85 159.09-3L159.09-3 159.09-37.55Q159.09-39.95 161.99-39.95L161.99-39.95Q164.99-39.95 164.99-37.55L164.99-37.55 164.99-5 181.69-5Q183.49-5 183.49-2.55L183.49-2.55Q183.59 0.05 181.69 0.05L181.69 0.05ZM194.24-37.55L194.24-2.1Q194.24 0.3 191.24 0.3L191.24 0.3Q188.28 0.3 188.28-2.1L188.28-2.1 188.28-37.55Q188.28-39.95 191.24-39.95L191.24-39.95Q194.24-39.95 194.24-37.55L194.24-37.55ZM224.38-10.5L224.38-37.55Q224.38-39.95 227.33-39.95L227.33-39.95Q230.28-39.95 230.28-37.55L230.28-37.55 230.28-3.05Q230.28-1.3 228.43-0.5L228.43-0.5 228.48-0.5Q227.68-0.15 226.78 0.05 225.88 0.25 225.03 0.25L225.03 0.25Q224.38 0.25 223.68 0.13 222.98 0 222.36-0.28 221.73-0.55 221.21-1.03 220.68-1.5 220.38-2.2L220.38-2.2 209.53-29.25 208.18-29.1 208.18-2.1Q208.18 0.3 205.18 0.3L205.18 0.3Q202.23 0.3 202.23-2.1L202.23-2.1 202.23-36.55Q202.23-38.6 204.03-39.3L204.03-39.3Q205.68-39.95 207.53-39.95L207.53-39.95Q208.83-39.95 210.16-39.43 211.48-38.9 212.18-37.45L212.18-37.45 222.98-10.35 224.38-10.5ZM243.63-21.2L258.88-39.1Q259.63-40 260.58-40L260.58-40Q261.63-40 262.73-39.05L262.73-39.05Q263.28-38.5 263.66-37.95 264.03-37.4 264.03-36.85L264.03-36.85Q264.03-35.95 263.38-35.3L263.38-35.3 256.68-27.5 243.63-12.15 243.63-2.1Q243.63 0.3 240.63 0.3L240.63 0.3Q237.68 0.3 237.68-2.1L237.68-2.1 237.68-37.55Q237.68-39.95 240.63-39.95L240.63-39.95Q243.63-39.95 243.63-37.55L243.63-37.55 243.63-21.2ZM261.28-1.5L251.78-15.35Q251.28-16.05 251.28-17.05L251.28-17.05Q251.28-18.55 252.53-19.45L252.53-19.45 252.48-19.45Q253.48-20.15 254.48-20.15L254.48-20.15Q255.43-20.15 256.08-19.05L256.08-19.05 265.73-4.95 265.68-5Q266.13-4.3 266.13-3.5L266.13-3.5Q266.13-2.2 264.83-1.2L264.83-1.2 264.88-1.2Q264.33-0.85 263.83-0.65 263.33-0.45 262.93-0.45L262.93-0.45Q262.53-0.45 262.11-0.75 261.68-1.05 261.28-1.5L261.28-1.5Z" opacity="1" transform="matrix(1,0,0,1,0,0)" fill="#ffffff" class="undefined-text-0" data-fill-palette-color="primary" id="text-0"></path></svg></g></svg></g></svg></g></svg></g><g><svg viewBox="0 0 158.10199247472454 158.0763184379314" height="158.0763184379314" width="158.10199247472454"><g><svg xmlns="http://www.w3.org/2000/svg" xmlns:xlink="http://www.w3.org/1999/xlink" version="1.1" x="0" y="0" viewBox="40.76799774169922 40.77000045776367 18.464000701904297 18.461002349853516" enable-background="new 0 0 100 100" xml:space="preserve" height="158.0763184379314" width="158.10199247472454" class="icon-icon-0" data-fill-palette-color="accent" id="icon-0"><path fill="#ffffff" d="M58.866 41.136c-0.487-0.487-1.278-0.489-1.768 0l-2.001 2c-0.95-0.653-2.07-1.011-3.249-1.011-1.537 0-2.98 0.597-4.066 1.683l-4.243 4.244c-1.986 1.986-2.204 5.072-0.67 7.31l-1.735 1.735c-0.488 0.488-0.488 1.279 0 1.768 0.244 0.244 0.564 0.366 0.885 0.366 0.319 0 0.639-0.122 0.883-0.366l1.806-1.806c0.872 0.514 1.859 0.808 2.897 0.808 1.537 0 2.98-0.598 4.067-1.684l4.242-4.243c1.886-1.886 2.164-4.759 0.877-6.962l2.075-2.074C59.354 42.416 59.354 41.624 58.866 41.136zM54.146 50.172l-4.243 4.243c-0.864 0.862-2.175 1.105-3.306 0.755l1.95-1.95c0.488-0.488 0.488-1.279 0.001-1.768-0.488-0.488-1.28-0.488-1.769 0l-2.084 2.083c-0.589-1.212-0.394-2.711 0.611-3.716l4.242-4.244c0.613-0.613 1.43-0.95 2.298-0.95 0.502 0 0.981 0.125 1.42 0.339l-1.817 1.816c-0.489 0.487-0.489 1.279 0 1.768 0.244 0.244 0.564 0.366 0.885 0.366 0.319 0 0.639-0.122 0.883-0.366l1.699-1.698C55.293 47.98 55.045 49.274 54.146 50.172z" data-fill-palette-color="accent"></path></svg></g></svg></g></svg></g><defs></defs></svg><rect width="395.52" height="110.09851097036949" fill="none" stroke="none" visibility="hidden"></rect></g></svg></g></svg>